# xmcd
#
# Track frame offsets:
#	150
#	13825
#	29741
#	43605
#	56254
#	68040
#	81202
#	96794
#	112008
#	130353
#	144433
#	160106
#	174753
#	189427
#	204614
#	215833
#	232504
#	251065
#	267790
#	282977
#
# Disc length: 4010 seconds
#
# Revision: 1
# Processed by: cddbd v1.5.1PL0 Copyright (c) Steve Scherf et al.
# Submitted via: EasyCDDAExtractor 6.2.0.3
#
DISCID=1b0fa814
DTITLE=Lindomar Castilho - As 20 Mais
DYEAR=2005
DGENRE=Retro
TTITLE0=Se Eu Pudesse
TTITLE1=Santa Maira Do Brasil
TTITLE2=Coração Vagabundo
TTITLE3=Você É Doida Demais
TTITLE4=Rico Pobre
TTITLE5=Eu Vou Rifar Meu Coração
TTITLE6=Nós Somos Dois Sem Vergonha
TTITLE7=Entre Tapas E Beijos
TTITLE8=De Carona Com A Saudade
TTITLE9=Deusa Do Araguaia
TTITLE10=Ébrio De Amor
TTITLE11=Coração Guerreiro
TTITLE12=Camas Separadas
TTITLE13=Eu E A Viola
TTITLE14=Adeus Mariana
TTITLE15=Feiticeira
TTITLE16=Porque Será?
TTITLE17=Cabecinha No Ombro
TTITLE18=Carga Pesada
TTITLE19=Muralhas Da Solidão
EXTD=
EXTT0=
EXTT1=
EXTT2=
EXTT3=
EXTT4=
EXTT5=
EXTT6=
EXTT7=
EXTT8=
EXTT9=
EXTT10=
EXTT11=
EXTT12=
EXTT13=
EXTT14=
EXTT15=
EXTT16=
EXTT17=
EXTT18=
EXTT19=
PLAYORDER=
